HIERARCHY
ROOT Hips
{
	OFFSET	0.00	0.00	0.00
	CHANNELS 6 Xposition Yposition Zposition Zrotation Xrotation Yrotation
	JOINT LeftUpLeg
	{
		OFFSET	 0.126116	-0.065224	 0.014019
		CHANNELS 3 Zrotation Xrotation Yrotation
		JOINT LeftLeg
		{
			OFFSET	 0.000000	 0.569914	 0.000000
			CHANNELS 3 Zrotation Xrotation Yrotation
			JOINT LeftFoot
			{
				OFFSET	 0.000000	 0.544423	 0.000000
				CHANNELS 3 Zrotation Xrotation Yrotation
				JOINT LeftToeBase
				{
					OFFSET	 0.000000	 0.207117	 0.000000
					CHANNELS 3 Zrotation Xrotation Yrotation
					End Site
					{
						OFFSET	 0.000000	 0.207117	 0.000000
					}
				}
			}
		}
	}
	JOINT RightUpLeg
	{
		OFFSET	-0.124023	-0.065224	 0.008373
		CHANNELS 3 Zrotation Xrotation Yrotation
		JOINT RightLeg
		{
			OFFSET	 0.000000	 0.570047	 0.000000
			CHANNELS 3 Zrotation Xrotation Yrotation
			JOINT RightFoot
			{
				OFFSET	 0.000000	 0.544354	 0.000000
				CHANNELS 3 Zrotation Xrotation Yrotation
				JOINT RightToeBase
				{
					OFFSET	 0.000000	 0.207540	 0.000000
					CHANNELS 3 Zrotation Xrotation Yrotation
					End Site
					{
						OFFSET	 0.000000	 0.207540	 0.000000
					}
				}
			}
		}
	}
	JOINT Spine
	{
		OFFSET	 0.000184	 0.117403	 0.007763
		CHANNELS 3 Zrotation Xrotation Yrotation
		JOINT Spine1
		{
			OFFSET	 0.000000	 0.137269	 0.000000
			CHANNELS 3 Zrotation Xrotation Yrotation
			JOINT Spine2
			{
				OFFSET	 0.000000	 0.156879	 0.000000
				CHANNELS 3 Zrotation Xrotation Yrotation
				JOINT LeftShoulder
				{
					OFFSET	 0.080501	 0.160143	 0.002496
					CHANNELS 3 Zrotation Xrotation Yrotation
					JOINT LeftArm
					{
						OFFSET	 0.000000	 0.164363	 0.000000
						CHANNELS 3 Zrotation Xrotation Yrotation
						JOINT LeftForeArm
						{
							OFFSET	 0.000000	 0.364576	 0.000000
							CHANNELS 3 Zrotation Xrotation Yrotation
							JOINT LeftHand
							{
								OFFSET	 0.000000	 0.360812	 0.000000
								CHANNELS 3 Zrotation Xrotation Yrotation
								JOINT LeftHandIndex1
								{
									OFFSET	 0.000000	 0.086006	 0.000000
									CHANNELS 3 Zrotation Xrotation Yrotation
									JOINT LeftHandIndex2
									{
										OFFSET	 0.000000	 0.047237	 0.000000
										CHANNELS 3 Zrotation Xrotation Yrotation
										JOINT LeftHandIndex3
										{
											OFFSET	-0.004284	 0.038165	 0.000551
											CHANNELS 3 Zrotation Xrotation Yrotation
											End Site
											{
												OFFSET	-0.004284	 0.038165	 0.000551
											}
										}
									}
								}
							}
						}
					}
				}
				JOINT Neck
				{
					OFFSET	 0.000000	 0.176489	 0.000000
					CHANNELS 3 Zrotation Xrotation Yrotation
					JOINT Head
					{
						OFFSET	 0.000000	 0.077941	 0.001747
						CHANNELS 3 Zrotation Xrotation Yrotation
						End Site
						{
							OFFSET	 0.000000	 0.077941	 0.001747
						}
					}
				}
				JOINT RightShoulder
				{
					OFFSET	-0.080363	 0.159706	-0.000306
					CHANNELS 3 Zrotation Xrotation Yrotation
					JOINT RightArm
					{
						OFFSET	 0.000000	 0.164196	 0.000000
						CHANNELS 3 Zrotation Xrotation Yrotation
						JOINT RightForeArm
						{
							OFFSET	 0.000000	 0.365611	 0.000000
							CHANNELS 3 Zrotation Xrotation Yrotation
							JOINT RightHand
							{
								OFFSET	 0.000000	 0.360648	 0.000000
								CHANNELS 3 Zrotation Xrotation Yrotation
								JOINT RightHandIndex1
								{
									OFFSET	 0.000000	 0.069977	 0.000000
									CHANNELS 3 Zrotation Xrotation Yrotation
									JOINT RightHandIndex2
									{
										OFFSET	 0.000000	 0.052305	 0.000000
										CHANNELS 3 Zrotation Xrotation Yrotation
										JOINT RightHandIndex3
										{
											OFFSET	 0.009002	 0.042196	 0.000782
											CHANNELS 3 Zrotation Xrotation Yrotation
											End Site
											{
												OFFSET	 0.009002	 0.042196	 0.000782
											}
										}
									}
								}
							}
						}
					}
				}
			}
		}
	}
}
MOTION
Frames:    7
Frame Time: 0.03333334
 0.436640	 1.274452	 0.406952	 0.532961	-2.461505	-177.244300	-179.035900	 6.740122	-13.053300	 3.361163	-12.445450	 5.978888	 5.425116	 69.452340	-1.574106	 1.292262	 28.425850	-2.713146	 176.491500	 7.698278	 14.693520	-2.038870	-10.486800	 0.812758	 0.427382	 66.010060	-5.711732	-1.288183	 28.361890	 2.710176	-0.051363	 6.585056	-2.477208	 0.613704	-6.830516	-1.142593	 0.013589	 7.880773	 2.907822	-117.569300	-0.813468	 89.943470	 42.635040	 0.900040	-6.108908	 4.259059	-0.231908	 34.224410	-29.554380	 8.608616	-2.478248	-6.580301	 5.266122	 0.000000	 0.000000	 0.000000	 0.000000	 0.000000	 0.000000	 0.000000	 4.871672	 27.357040	 1.649433	-3.994342	-16.288930	 0.864696	 116.461300	-0.488134	-90.552590	-11.952930	-4.834923	 19.927020	-5.204506	 0.273317	-56.783630	-15.297950	-9.188076	 10.787140	 15.208500	 5.323790	 0.000000	 0.000000	 0.000000	 0.000000	 0.000000	 0.000000	 0.000000
 0.440951	 1.275119	 0.473523	 0.870176	-13.675540	-175.844300	-179.295000	 25.357080	-15.221800	 5.003309	-18.174510	 10.667660	 19.637950	 65.486080	-12.582320	 1.292262	 28.425850	-2.713146	 174.743500	 25.124990	 20.245370	-2.960349	-15.039770	-3.219546	-13.256890	 62.624170	 4.186288	-1.288183	 28.361890	 2.710176	 5.563944	 9.375422	-31.670310	 0.029451	-6.813606	-1.055599	 0.652696	 15.621250	 1.662315	-123.518300	 4.786047	 92.876470	 63.729350	 4.574765	-3.751785	 17.147420	 4.424981	 4.766484	-17.905410	-13.709720	-15.254480	-6.580301	 5.266122	 0.000000	 0.000000	 0.000000	 0.000000	 0.000000	 0.000000	 0.000000	 9.458830	 36.429370	-3.103284	-4.002678	-23.453770	 1.145084	 126.026500	 3.603292	-93.061290	-7.536965	 19.833900	 8.533160	-64.326370	 10.731460	-28.193300	 1.720074	-16.186920	 8.529737	 15.208500	 5.323790	 0.000000	 0.000000	 0.000000	 0.000000	 0.000000	 0.000000	 0.000000
 0.446691	 1.264186	 0.503098	 1.365021	-18.702470	-174.151400	-179.971100	 34.643600	-13.223210	 6.273184	-22.358050	 13.645480	 26.610200	 64.132310	-18.831540	 1.292262	 28.425850	-2.713146	 173.141600	 34.324970	 22.537000	-4.049741	-20.174830	-4.198617	-17.975520	 63.341660	 7.337794	-1.288183	 28.361890	 2.710176	 6.742688	 9.034355	-36.443770	 0.301797	-1.460444	-0.954580	 1.042165	 12.921990	 0.989856	-122.402100	 8.724385	 94.810780	 65.527910	 5.442069	-4.922707	 19.943340	 5.550540	 1.708537	-12.834920	-21.860000	-21.231700	-6.580301	 5.266122	 0.000000	 0.000000	 0.000000	 0.000000	 0.000000	 0.000000	 0.000000	 7.970109	 35.388080	-2.706830	-3.421861	-25.266520	 0.716483	 125.249100	 7.778738	-95.251560	-10.896150	 24.015840	 7.539917	-74.254310	 12.215050	-21.508730	 4.907825	-22.370600	 12.136240	 15.208500	 5.323790	 0.000000	 0.000000	 0.000000	 0.000000	 0.000000	 0.000000	 0.000000
 0.453361	 1.256095	 0.532852	 1.884399	-24.538850	-172.522800	 178.730800	 43.155580	-10.557270	 6.555439	-23.255210	 16.096740	 31.017070	 60.820740	-22.146650	 1.292262	 28.425850	-2.713146	 171.085500	 42.925240	 24.682690	-4.481621	-22.123570	-5.062769	-22.231740	 62.165090	 9.677494	-1.288183	 28.361890	 2.710176	 7.386565	 8.515876	-39.457920	 0.977548	 3.172016	-0.725712	 1.220806	 10.618280	 0.368640	-120.846200	 13.057650	 96.785900	 67.888780	 5.066041	-5.986133	 22.651780	 6.640931	-1.455247	-7.230687	-26.783740	-26.663800	-6.580301	 5.266122	 0.000000	 0.000000	 0.000000	 0.000000	 0.000000	 0.000000	 0.000000	 6.499850	 34.004410	-2.423312	-2.858321	-27.286690	 0.269754	 124.231200	 12.391590	-97.562780	-18.678230	 26.049950	 9.486581	-79.570060	 13.274990	-14.755920	 6.614190	-26.471000	 16.237610	 15.208500	 5.323790	 0.000000	 0.000000	 0.000000	 0.000000	 0.000000	 0.000000	 0.000000
 0.458226	 1.241909	 0.556604	 0.195044	-27.712940	-173.939000	 177.150200	 48.223090	-10.523170	 7.006046	-24.661680	 17.661870	 34.861100	 59.639600	-24.946770	 1.292262	 28.425850	-2.713146	 168.678600	 49.108080	 24.160180	-5.171953	-25.126600	-9.330133	-31.071670	 59.687850	 17.990830	-1.288183	 28.361890	 2.710176	 8.310898	 9.481965	-39.324510	 0.930357	 3.673630	 0.001737	 1.194063	 11.218120	-0.028369	-120.411000	 16.398830	 98.364120	 71.728120	 0.876820	-5.481042	 25.160120	 7.007100	-5.593863	-3.319955	-26.827550	-30.234850	-6.580301	 5.266122	 0.000000	 0.000000	 0.000000	 0.000000	 0.000000	 0.000000	 0.000000	 4.529562	 34.494770	-2.739632	-1.682063	-31.560340	-0.353339	 122.237300	 16.151630	-99.128880	-23.426400	 24.579030	 12.505910	-80.785560	 13.535010	-8.019720	 6.241360	-30.311000	 21.786430	 15.208500	 5.323790	 0.000000	 0.000000	 0.000000	 0.000000	 0.000000	 0.000000	 0.000000
 0.468904	 1.199807	 0.579577	-4.056004	-33.220240	-175.857400	 170.096800	 60.353740	-6.466248	 10.466120	-34.363850	 22.813980	 45.717180	 59.580940	-35.462620	 1.292262	 28.425850	-2.713146	 158.640700	 62.918470	 28.108150	-8.748496	-38.355260	-18.198930	-46.309590	 56.719990	 33.938260	-1.288183	 28.361890	 2.710176	 7.970115	 11.858020	-33.766390	 0.456393	 9.064320	-0.131837	 0.010549	 9.497933	-0.417703	-120.983600	 20.804030	 100.677800	 75.451700	-5.508553	-2.432614	 27.368670	 6.944674	-9.781851	-2.560488	-20.746730	-32.211190	-6.580301	 5.266122	 0.000000	 0.000000	 0.000000	 0.000000	 0.000000	 0.000000	 0.000000	 7.425008	 39.549320	-4.365621	-2.615385	-40.955840	-0.233023	 128.422300	 23.076950	-104.485000	-30.990350	 12.934480	 13.934120	-79.041900	 12.458210	 0.266536	 5.357716	-24.714780	 21.699170	 15.208500	 5.323790	 0.000000	 0.000000	 0.000000	 0.000000	 0.000000	 0.000000	 0.000000
 0.475356	 1.154211	 0.585881	-6.616127	-36.105760	-177.124200	 162.636200	 69.912570	-0.515848	 15.721440	-45.566070	 26.731110	 54.229270	 61.712780	-44.104180	 1.292262	 28.425850	-2.713146	 145.130600	 72.788700	 37.918770	-13.427720	-50.385480	-22.222250	-52.943920	 57.507220	 40.631590	-1.288183	 28.361890	 2.710176	 5.952612	 13.926030	-24.891240	-0.787480	 9.724810	-0.749297	-0.747565	 9.315066	-0.817044	-125.812800	 25.373680	 104.408100	 74.107030	-8.819872	 8.115800	 28.264210	 2.502454	-19.890060	-1.992603	-9.262030	-28.895650	-6.580301	 5.266122	 0.000000	 0.000000	 0.000000	 0.000000	 0.000000	 0.000000	 0.000000	 9.030748	 41.378800	-4.765044	-3.993595	-45.236200	-0.400481	 130.757700	 26.079120	-107.032000	-36.929880	 5.824667	 13.799260	-77.466740	 10.124490	 6.018738	 6.943696	-15.614190	 19.927200	 15.208500	 5.323790	 0.000000	 0.000000	 0.000000	 0.000000	 0.000000	 0.000000	 0.000000
